<mxfile host="app.diagrams.net" modified="2021-06-30T13:34:21.777Z" agent="5.0 (Windows NT 10.0; Win64; x64) AppleWebKit/537.36 (KHTML, like Gecko) Chrome/91.0.4472.124 Safari/537.36" etag="uFnoIzw9yJOpl3k5FJIK" version="14.8.3" type="github">
  <diagram id="VgwbG2aTla_3TUX3RFWY" name="第 1 页">
    <mxGraphModel dx="519" dy="755" grid="1" gridSize="10" guides="1" tooltips="1" connect="1" arrows="1" fold="1" page="1" pageScale="1" pageWidth="850" pageHeight="1100" math="0" shadow="0">
      <root>
        <mxCell id="0" />
        <mxCell id="1" parent="0" />
        <mxCell id="jL6HbfODy8RkGALqVz3W-7" value="server" style="ellipse;whiteSpace=wrap;html=1;" vertex="1" parent="1">
          <mxGeometry x="550" y="340" width="90" height="70" as="geometry" />
        </mxCell>
        <mxCell id="jL6HbfODy8RkGALqVz3W-12" style="edgeStyle=entityRelationEdgeStyle;rounded=0;orthogonalLoop=1;jettySize=auto;html=1;exitX=1;exitY=0.5;exitDx=0;exitDy=0;entryX=0;entryY=0.5;entryDx=0;entryDy=0;" edge="1" parent="1" source="jL6HbfODy8RkGALqVz3W-9" target="jL6HbfODy8RkGALqVz3W-7">
          <mxGeometry relative="1" as="geometry" />
        </mxCell>
        <mxCell id="jL6HbfODy8RkGALqVz3W-9" value="client" style="ellipse;whiteSpace=wrap;html=1;" vertex="1" parent="1">
          <mxGeometry x="340" y="250" width="90" height="70" as="geometry" />
        </mxCell>
        <mxCell id="jL6HbfODy8RkGALqVz3W-13" style="edgeStyle=entityRelationEdgeStyle;rounded=0;orthogonalLoop=1;jettySize=auto;html=1;exitX=1;exitY=0.5;exitDx=0;exitDy=0;entryX=0;entryY=0.5;entryDx=0;entryDy=0;" edge="1" parent="1" source="jL6HbfODy8RkGALqVz3W-10" target="jL6HbfODy8RkGALqVz3W-7">
          <mxGeometry relative="1" as="geometry" />
        </mxCell>
        <mxCell id="jL6HbfODy8RkGALqVz3W-10" value="client" style="ellipse;whiteSpace=wrap;html=1;" vertex="1" parent="1">
          <mxGeometry x="340" y="410" width="90" height="70" as="geometry" />
        </mxCell>
        <mxCell id="jL6HbfODy8RkGALqVz3W-11" value="central" style="text;html=1;align=center;verticalAlign=middle;resizable=0;points=[];autosize=1;strokeColor=none;" vertex="1" parent="1">
          <mxGeometry x="570" y="310" width="50" height="20" as="geometry" />
        </mxCell>
        <mxCell id="jL6HbfODy8RkGALqVz3W-14" value="" style="endArrow=classic;html=1;entryX=0.5;entryY=1;entryDx=0;entryDy=0;" edge="1" parent="1" target="jL6HbfODy8RkGALqVz3W-7">
          <mxGeometry width="50" height="50" relative="1" as="geometry">
            <mxPoint x="470" y="610" as="sourcePoint" />
            <mxPoint x="520" y="560" as="targetPoint" />
          </mxGeometry>
        </mxCell>
        <mxCell id="jL6HbfODy8RkGALqVz3W-15" value="" style="endArrow=classic;html=1;entryX=0.5;entryY=1;entryDx=0;entryDy=0;" edge="1" parent="1" target="jL6HbfODy8RkGALqVz3W-7">
          <mxGeometry width="50" height="50" relative="1" as="geometry">
            <mxPoint x="570" y="610" as="sourcePoint" />
            <mxPoint x="620" y="560" as="targetPoint" />
          </mxGeometry>
        </mxCell>
        <mxCell id="jL6HbfODy8RkGALqVz3W-16" value="" style="endArrow=classic;html=1;entryX=0.5;entryY=1;entryDx=0;entryDy=0;" edge="1" parent="1" target="jL6HbfODy8RkGALqVz3W-7">
          <mxGeometry width="50" height="50" relative="1" as="geometry">
            <mxPoint x="650" y="610" as="sourcePoint" />
            <mxPoint x="700" y="560" as="targetPoint" />
          </mxGeometry>
        </mxCell>
      </root>
    </mxGraphModel>
  </diagram>
</mxfile>
